<svg width="29" height="29" viewBox="0 0 29 29" fill="none" xmlns="http://www.w3.org/2000/svg">
<g id="Frame 35">
<path id="Union" fill-rule="evenodd" clip-rule="evenodd" d="M21.1072 12.5536C21.1072 17.2776 17.2776 21.1072 12.5536 21.1072C7.82957 21.1072 4 17.2776 4 12.5536C4 7.82957 7.82957 4 12.5536 4C17.2776 4 21.1072 7.82957 21.1072 12.5536ZM19.2847 20.6823C17.4578 22.1968 15.112 23.1072 12.5536 23.1072C6.725 23.1072 2 18.3822 2 12.5536C2 6.725 6.725 2 12.5536 2C18.3822 2 23.1072 6.725 23.1072 12.5536C23.1072 15.112 22.1968 17.4577 20.6824 19.2846C20.7232 19.3145 20.7622 19.3479 20.7991 19.3848L26.8297 25.4154C27.2202 25.8059 27.2202 26.4391 26.8297 26.8296C26.4392 27.2201 25.806 27.2201 25.4155 26.8296L19.3849 20.799C19.348 20.7621 19.3146 20.7231 19.2847 20.6823Z" fill="#171923"/>
</g>
</svg>
