<svg width="29" height="29" viewBox="0 0 29 29" fill="none" xmlns="http://www.w3.org/2000/svg">
<path fill-rule="evenodd" clip-rule="evenodd" d="M3.62484 2.41669C3.30437 2.41669 2.99702 2.54399 2.77042 2.7706C2.54381 2.99721 2.4165 3.30455 2.4165 3.62502C2.4165 3.94549 2.54381 4.25283 2.77042 4.47944C2.99702 4.70605 3.30437 4.83335 3.62484 4.83335H4.92259L5.11592 7.34306L5.86025 17.0303C5.93381 17.9854 6.38244 18.8726 7.1081 19.4979C7.83376 20.1233 8.77746 20.436 9.73296 20.3677L22.2453 19.4735C23.0907 19.4132 23.8883 19.0584 24.4994 18.471C25.1104 17.8836 25.4963 17.1006 25.5899 16.2581L26.5759 7.38294C26.5946 7.21407 26.5775 7.04315 26.5256 6.88135C26.4738 6.71955 26.3884 6.5705 26.2751 6.44393C26.1617 6.31736 26.023 6.21612 25.8679 6.14681C25.7127 6.07749 25.5447 6.04168 25.3748 6.04169H7.43955L7.24621 3.53198C7.22278 3.22853 7.08569 2.94509 6.86235 2.73833C6.63901 2.53156 6.34586 2.4167 6.0415 2.41669H3.62484ZM8.45817 24.7709C8.45817 24.2901 8.64913 23.8291 8.98904 23.4892C9.32895 23.1493 9.78997 22.9584 10.2707 22.9584H10.2828C10.7635 22.9584 11.2245 23.1493 11.5644 23.4892C11.9043 23.8291 12.0953 24.2901 12.0953 24.7709V24.7829C12.0953 25.2636 11.9043 25.7247 11.5644 26.0646C11.2245 26.4045 10.7635 26.5954 10.2828 26.5954H10.2707C9.78997 26.5954 9.32895 26.4045 8.98904 26.0646C8.64913 25.7247 8.45817 25.2636 8.45817 24.7829V24.7709ZM21.1457 22.9584C20.665 22.9584 20.204 23.1493 19.864 23.4892C19.5241 23.8291 19.3332 24.2901 19.3332 24.7709V24.7829C19.3332 25.2636 19.5241 25.7247 19.864 26.0646C20.204 26.4045 20.665 26.5954 21.1457 26.5954H21.1578C21.6385 26.5954 22.0995 26.4045 22.4394 26.0646C22.7793 25.7247 22.9703 25.2636 22.9703 24.7829V24.7709C22.9703 24.2901 22.7793 23.8291 22.4394 23.4892C22.0995 23.1493 21.6385 22.9584 21.1578 22.9584H21.1457Z" fill="#171923"/>
</svg>
